<?xml version="1.0" standalone="no"?>
<!DOCTYPE svg PUBLIC "-//W3C//DTD SVG 20010904//EN"
 "http://www.w3.org/TR/2001/REC-SVG-20010904/DTD/svg10.dtd">
<svg version="1.0" xmlns="http://www.w3.org/2000/svg"
 width="260.000000pt" height="260.000000pt" viewBox="0 0 260.000000 260.000000"
 preserveAspectRatio="xMidYMid meet">
<metadata>
Created by potrace 1.14, written by Peter Selinger 2001-2017
</metadata>
<g transform="translate(0.000000,260.000000) scale(0.100000,-0.100000)"
fill="#000000" stroke="none">
<path d="M485 2552 c0 -29 -4 -47 -12 -47 -6 0 -15 -3 -19 -7 -3 -4 2 -6 13
-4 16 4 20 -1 21 -25 0 -16 -3 -27 -8 -24 -4 3 -7 -6 -6 -20 0 -14 5 -25 9
-25 5 0 5 -5 2 -10 -9 -15 -26 -1 -23 18 2 10 -4 17 -12 17 -8 0 -15 -8 -16
-18 -1 -12 -1 -13 3 -2 2 8 8 15 13 15 6 0 6 -9 1 -22 -5 -13 -15 -22 -22 -20
-7 2 -19 -4 -25 -13 -8 -10 -15 -12 -18 -6 -4 6 2 16 14 23 11 7 20 17 20 22
0 4 -7 3 -15 -4 -8 -7 -15 -8 -15 -2 0 5 10 17 23 26 20 15 20 16 1 7 -15 -7
-25 -6 -34 2 -12 10 -12 9 -1 -5 15 -21 9 -23 -21 -7 -15 8 -19 8 -14 0 4 -6
1 -11 -6 -11 -10 0 -10 -2 1 -9 7 -5 9 -11 5 -13 -5 -3 -4 -3 3 -2 6 2 19 -8
28 -22 16 -24 13 -44 -6 -44 -6 0 -7 4 -4 10 3 5 1 18 -5 27 -8 15 -10 12 -6
-15 3 -23 1 -32 -7 -29 -7 3 -11 10 -9 16 1 7 -2 10 -8 6 -7 -4 -8 -11 -2 -18
11 -13 10 -46 -1 -64 -4 -6 -3 -14 2 -17 10 -7 9 -25 -2 -43 -4 -6 -4 -14 1
-17 5 -3 7 -30 5 -61 -3 -53 1 -63 22 -47 15 10 18 43 4 40 -6 -2 -14 4 -16
12 -4 13 -3 13 6 0 6 -8 11 -10 11 -4 0 5 -6 16 -12 24 -10 11 -9 11 7 0 19
-14 19 -14 6 3 -16 21 -6 37 12 17 10 -10 9 -11 -3 -5 -13 8 -13 6 -1 -8 7 -9
17 -14 22 -11 5 3 6 -2 3 -10 -3 -9 -1 -16 6 -16 6 0 9 4 6 8 -3 5 1 9 9 9 8
0 15 -4 15 -9 0 -4 3 -8 8 -8 4 0 7 24 7 54 0 34 -3 52 -10 48 -5 -3 -4 2 4
11 18 23 7 34 -16 16 -16 -13 -17 -12 -4 4 8 10 20 16 28 13 9 -4 11 -1 7 6
-5 7 -3 8 7 3 12 -7 12 -6 1 7 -18 22 -24 60 -9 55 7 -2 11 -13 10 -23 -1 -10
0 -13 3 -6 3 6 10 12 15 12 6 0 6 -7 1 -17 -10 -21 -10 -33 1 -50 5 -7 4 -13
-1 -13 -10 0 -10 -40 1 -57 4 -6 3 -14 -2 -17 -11 -7 -9 -25 3 -45 7 -10 6
-12 -4 -6 -10 6 -12 4 -7 -9 5 -14 3 -15 -13 -6 -25 13 -27 13 -27 -5 0 -9 6
-14 14 -11 9 4 11 1 7 -6 -5 -8 -2 -9 9 -5 22 8 30 -8 12 -23 -18 -15 -20 -34
-3 -24 7 4 8 3 4 -4 -4 -7 -1 -12 6 -12 10 0 11 -2 0 -8 -7 -5 -10 -16 -6 -25
3 -10 1 -17 -6 -17 -6 0 -8 -5 -5 -11 4 -6 -2 -5 -14 3 -12 7 -21 16 -21 20 0
5 -5 8 -11 8 -5 0 -7 -4 -4 -10 3 -5 1 -10 -5 -10 -6 0 -8 -6 -5 -12 4 -7 -3
-2 -14 11 -16 18 -21 20 -21 7 0 -14 -11 -20 -31 -18 -13 2 -15 -67 -2 -72 7
-3 10 1 6 10 -3 7 0 14 7 14 6 0 9 -4 5 -9 -3 -6 3 -15 12 -20 14 -9 11 -10
-17 -7 l-35 5 30 -15 c20 -10 23 -14 8 -11 -19 4 -22 0 -25 -39 -2 -34 0 -44
12 -45 10 0 8 -3 -5 -9 -13 -6 -15 -9 -5 -9 13 -1 13 -2 0 -11 -12 -8 -12 -10
5 -11 l20 0 -20 -9 c-20 -9 -8 -14 25 -11 13 2 13 0 1 -8 -8 -5 -19 -7 -25 -5
-8 3 -11 -89 -11 -317 0 -176 -4 -323 -8 -326 -4 -3 -2 -11 4 -20 10 -12 10
-16 -2 -24 -8 -5 -9 -9 -3 -9 13 0 13 -62 -1 -72 -7 -5 -6 -8 1 -8 5 0 10 -11
10 -25 0 -14 -4 -25 -9 -25 -5 0 -4 -7 3 -15 12 -14 7 -20 -14 -16 -5 1 -6 -7
-3 -19 3 -11 0 -23 -5 -27 -7 -3 -8 -1 -4 5 4 7 3 12 -2 12 -6 0 -8 10 -6 23
2 12 2 16 -2 10 -7 -16 -58 -17 -84 -3 -16 8 -18 8 -14 -5 3 -8 10 -12 15 -9
5 3 6 -2 3 -11 -6 -14 -8 -14 -19 1 -16 23 -23 7 -18 -38 3 -24 9 -36 17 -32
6 3 3 -1 -6 -9 -14 -11 -15 -16 -5 -27 7 -7 8 -10 2 -7 -6 3 -10 -12 -9 -38 0
-24 -3 -42 -8 -39 -4 3 -8 1 -8 -5 0 -5 5 -13 10 -16 8 -5 8 -11 0 -20 -8 -10
-7 -14 2 -18 9 -4 9 -6 1 -6 -8 -1 -9 -10 -3 -30 4 -16 5 -32 2 -36 -11 -11
-10 -35 1 -35 9 0 9 -2 0 -8 -12 -8 -12 -36 0 -48 3 -4 2 -15 -4 -26 -7 -14
-7 -23 1 -33 8 -10 8 -14 -2 -17 -10 -4 -10 -8 1 -21 7 -10 9 -17 3 -17 -5 0
-8 -9 -5 -20 3 -11 0 -20 -6 -20 -6 0 -10 5 -9 12 2 6 -6 13 -17 15 -18 3 -18
2 -2 -5 10 -4 18 -11 18 -15 -2 -21 0 -26 13 -21 11 4 13 0 9 -17 -4 -13 -8
-18 -11 -11 -4 14 -22 6 -22 -9 0 -6 4 -8 9 -4 5 3 16 -1 24 -9 14 -14 40 -16
53 -4 3 4 16 3 28 -1 11 -5 39 -7 61 -6 22 2 31 0 21 -2 -15 -4 -16 -7 -5 -14
10 -6 10 -9 2 -9 -7 0 -13 -5 -13 -11 0 -5 4 -7 10 -4 6 3 10 1 10 -5 0 -7 -6
-10 -12 -7 -7 2 -12 12 -11 22 1 13 -2 14 -10 5 -9 -9 -6 -16 12 -31 27 -22
42 -25 37 -7 -1 7 -1 10 1 5 3 -4 10 -4 15 -1 7 4 8 2 4 -4 -4 -7 -3 -12 3
-12 5 0 12 6 14 13 4 9 6 9 6 -1 1 -7 -6 -15 -14 -18 -8 -4 -12 -11 -8 -18 4
-7 1 -6 -9 2 -23 18 -50 5 -38 -18 13 -24 13 -30 -1 -30 -5 0 -8 4 -5 8 2 4 0
14 -6 22 -8 12 -9 12 -4 -3 4 -11 2 -16 -5 -12 -6 4 -8 14 -5 22 4 9 2 12 -7
7 -9 -6 -9 -5 0 7 10 12 10 18 0 29 -9 11 -7 10 8 0 14 -11 11 -5 -8 21 -30
41 -49 44 -74 16 -10 -11 -13 -18 -7 -14 6 3 11 0 11 -8 0 -10 -4 -12 -12 -5
-8 6 -17 0 -29 -20 -15 -26 -15 -29 -1 -24 11 5 14 2 9 -10 -3 -9 -10 -14 -14
-11 -5 3 -7 -3 -6 -12 3 -16 22 -18 202 -19 140 -1 201 1 206 10 6 8 8 8 8 0
0 -9 200 -12 770 -13 l771 -1 -12 21 c-6 12 -7 19 -1 15 13 -8 22 40 10 52 -6
6 -5 18 2 32 8 15 8 20 1 16 -6 -4 -11 -3 -11 3 0 5 5 13 11 17 8 5 8 9 -1 14
-9 6 -8 11 3 21 13 12 12 15 -2 25 -13 10 -12 12 12 11 15 -1 25 -7 23 -12 -5
-15 15 -39 35 -43 29 -4 30 26 1 53 -15 14 -22 25 -16 25 5 0 15 -5 21 -11 8
-8 13 -8 17 0 4 6 12 11 18 11 6 0 6 -6 -2 -15 -10 -13 -11 -18 -1 -28 10 -9
11 -9 6 4 -4 10 0 16 10 16 20 0 19 -9 -5 -37 -26 -30 -25 -38 2 -14 21 19 21
19 14 -1 -4 -11 -3 -16 1 -11 4 4 8 29 8 54 1 35 -5 52 -20 65 -20 18 -20 18
5 12 19 -5 22 -4 10 4 -12 9 -13 11 -1 11 8 0 11 3 8 7 -4 3 -2 12 3 19 14 16
-18 50 -32 36 -7 -7 -22 -3 -43 9 -22 13 -36 16 -40 9 -3 -5 -3 -10 2 -11 28
-2 47 -9 57 -20 8 -9 7 -10 -4 -4 -13 8 -13 7 0 -11 14 -18 14 -18 -4 -4 -16
12 -18 12 -11 1 5 -9 4 -12 -3 -7 -6 4 -8 14 -5 24 6 15 5 15 -10 3 -9 -7 -15
-17 -12 -21 6 -10 -20 -32 -28 -23 -4 3 -7 1 -7 -5 0 -7 3 -12 8 -12 4 0 7
-16 8 -35 0 -21 -4 -34 -10 -32 -6 2 -10 12 -8 22 2 9 -1 14 -6 11 -10 -6 -8
36 2 53 4 5 2 12 -4 16 -7 4 -7 12 0 26 8 14 7 19 -1 19 -8 0 -8 4 -2 13 6 6
9 20 8 30 -2 9 1 15 6 11 5 -3 9 -2 10 3 2 29 11 47 37 87 22 33 27 47 19 54
-18 14 -49 11 -42 -5 3 -7 7 -19 10 -26 3 -7 -1 -21 -9 -32 -12 -17 -17 -18
-28 -7 -11 11 -10 12 3 7 26 -10 30 30 7 60 -11 14 -17 31 -15 38 3 7 6 5 6
-5 1 -19 16 -24 26 -8 3 5 13 6 23 3 16 -5 16 -4 -1 13 -15 17 -19 17 -28 4
-9 -12 -10 -12 -5 3 3 10 6 21 6 24 0 3 7 -1 17 -8 13 -11 17 -11 20 -1 3 6 9
12 15 12 6 0 5 -6 -2 -15 -7 -9 -10 -19 -6 -22 4 -4 12 -1 17 7 9 13 10 12 5
-2 -6 -20 4 -28 42 -33 15 -2 21 -2 14 1 -6 3 -9 10 -6 16 4 6 -2 8 -17 3 -23
-7 -23 -7 -4 8 11 8 24 13 30 9 5 -3 4 1 -2 9 -10 12 -10 18 0 29 10 10 8 12
-7 6 -15 -5 -16 -4 -8 7 6 7 11 35 11 62 1 70 2 85 4 130 1 25 -4 45 -13 53
-8 8 -9 11 -2 7 15 -8 14 -41 16 360 l1 339 75 2 c94 2 92 2 85 14 -3 6 -1 10
6 10 10 0 10 3 1 12 -9 9 -8 16 5 30 13 14 13 18 2 13 -11 -4 -14 3 -14 30 0
20 6 39 12 43 7 5 44 7 82 7 l69 -2 1 244 c1 134 -1 249 -5 254 -3 6 -12 5
-21 -3 -19 -15 -23 -15 -34 4 -7 11 -11 10 -19 -2 -9 -15 -11 -13 -14 13 -2
17 -49 15 -53 -3 -3 -9 -1 -11 4 -5 4 6 17 12 27 13 17 3 18 1 8 -11 -7 -8
-21 -14 -30 -12 -9 2 -19 4 -22 4 -3 1 -6 13 -7 28 -1 19 1 22 8 12 7 -11 9
-11 9 3 0 9 -4 20 -10 23 -11 7 -9 33 3 53 5 7 3 12 -4 12 -7 0 -9 3 -6 7 10
10 -14 34 -26 26 -7 -4 -38 -7 -69 -8 -47 -1 -62 3 -76 19 -9 11 -11 16 -4 12
13 -8 14 -4 15 42 1 19 -3 26 -13 24 -11 -3 -12 0 -4 8 6 6 20 12 31 13 11 0
20 7 20 14 0 10 -4 10 -11 3 -16 -16 -28 -12 -22 8 10 31 -48 22 -74 -10 l-21
-28 21 0 c12 0 18 5 15 10 -3 6 1 13 9 16 9 3 13 10 10 15 -3 5 3 6 12 2 11
-4 13 -8 6 -11 -7 -2 -10 -8 -7 -13 4 -5 -1 -6 -10 -3 -10 4 -15 2 -13 -7 2
-9 -6 -14 -22 -14 -16 0 -24 5 -22 14 2 9 -3 11 -15 7 -9 -4 -14 -4 -10 0 4 4
0 12 -9 18 -13 10 -13 12 5 12 11 0 18 -3 15 -7 -2 -4 3 -9 11 -13 9 -3 19 3
25 14 7 14 7 20 0 20 -5 0 -10 -6 -10 -12 0 -10 -2 -10 -8 0 -9 13 -59 11 -82
-3 -9 -5 -11 -4 -6 3 5 8 -1 12 -14 12 -14 0 -19 -4 -14 -12 5 -10 4 -10 -6
-1 -11 10 -16 9 -27 -5 -12 -16 -13 -16 -7 1 5 13 2 16 -12 14 -11 -1 -25 -7
-33 -11 -9 -6 -12 -5 -8 1 5 8 -43 10 -151 9 -124 -1 -156 -4 -154 -14 1 -8
-2 -11 -8 -7 -6 3 -8 10 -5 15 3 5 -221 9 -515 10 -397 0 -520 -2 -514 -11 5
-8 3 -9 -7 -3 -8 5 -41 10 -74 11 l-60 2 0 -47z m1521 13 c-1 -8 -5 -17 -8
-21 -5 -4 -4 16 1 34 3 9 9 -1 7 -13z m-259 -14 c0 -11 -5 -18 -9 -15 -4 3 -5
11 -1 19 7 21 12 19 10 -4z m320 2 c0 -9 -4 -10 -14 -2 -7 6 -13 12 -13 14 0
1 6 2 13 2 8 0 14 -6 14 -14z m-281 -18 c-1 -8 -5 -17 -8 -21 -5 -4 -4 16 1
34 3 9 9 -1 7 -13z m119 5 c3 -5 1 -10 -4 -10 -6 0 -11 5 -11 10 0 6 2 10 4
10 3 0 8 -4 11 -10z m239 1 c3 -4 0 -13 -6 -21 -8 -12 -9 -11 -4 4 5 13 2 17
-9 13 -8 -4 -16 -3 -19 1 -3 4 4 8 14 9 11 1 22 -2 24 -6z m-118 -16 c-1 -8
-5 -17 -8 -21 -5 -4 -4 16 1 34 3 9 9 -1 7 -13z m64 -7 c0 -4 -4 -8 -9 -8 -6
0 -12 4 -15 8 -3 5 1 9 9 9 8 0 15 -4 15 -9z m100 -5 c0 -3 -7 -2 -16 1 -12 5
-14 1 -9 -17 5 -19 4 -20 -5 -4 -13 21 -5 38 15 30 8 -3 15 -7 15 -10z m80 -7
c0 -2 -9 -2 -20 1 -11 3 -20 9 -20 15 0 5 9 4 20 -2 11 -6 20 -12 20 -14z
m-564 -11 c-1 -8 -5 -17 -8 -21 -5 -4 -4 16 1 34 3 9 9 -1 7 -13z m204 5 c0
-5 -5 -10 -11 -10 -5 0 -7 5 -4 10 3 6 8 10 11 10 2 0 4 -4 4 -10z m67 4 c-3
-3 -12 -4 -19 -1 -8 3 -5 6 6 6 11 1 17 -2 13 -5z m167 -26 c-3 -4 0 -9 5 -9
6 -1 16 -2 23 -3 6 0 12 -7 14 -14 1 -7 0 -8 -3 -2 -2 5 -9 8 -13 5 -5 -3 -20
5 -32 17 -13 13 -27 22 -31 20 -5 -1 -6 2 -2 8 4 6 12 5 25 -2 10 -7 16 -16
14 -20z m82 20 c5 -8 2 -9 -10 -5 -16 6 -17 3 -12 -20 5 -23 4 -25 -5 -10 -12
20 -6 47 10 47 5 0 13 -5 17 -12z m-418 -23 c-3 -3 -9 2 -12 12 -6 14 -5 15 5
6 7 -7 10 -15 7 -18z m192 11 c0 -2 -8 -10 -17 -17 -16 -13 -17 -12 -4 4 13
16 21 21 21 13z m50 -21 c14 -19 14 -19 -2 -6 -10 7 -18 18 -18 24 0 6 1 8 3
6 1 -2 9 -13 17 -24z m200 15 c-8 -5 -19 -10 -25 -10 -5 0 -3 5 5 10 8 5 20
10 25 10 6 0 3 -5 -5 -10z m-230 -14 c0 -2 -8 -10 -17 -17 -16 -13 -17 -12 -4
4 13 16 21 21 21 13z m108 -21 c-3 -3 -9 2 -12 12 -6 14 -5 15 5 6 7 -7 10
-15 7 -18z m119 -1 c-3 -3 -12 -4 -19 -1 -8 3 -5 6 6 6 11 1 17 -2 13 -5z
m-1867 -49 c7 -8 8 -15 2 -15 -5 0 -15 7 -22 15 -7 8 -8 15 -2 15 5 0 15 -7
22 -15z m99 -24 c9 -6 10 -11 2 -15 -6 -4 -11 -2 -11 5 0 6 -8 1 -18 -10 -9
-12 -26 -23 -37 -25 -12 -2 -19 -10 -17 -19 2 -11 -2 -15 -11 -11 -8 3 -19 -1
-26 -9 -9 -11 -8 -17 6 -28 9 -8 14 -9 10 -3 -3 6 0 11 8 12 8 1 22 3 30 4 11
1 12 5 4 14 -11 14 -4 34 11 34 5 0 7 -6 4 -14 -3 -8 0 -17 6 -21 7 -4 0 -15
-20 -30 -22 -16 -27 -24 -17 -28 8 -3 21 0 28 6 11 10 11 9 1 -4 -6 -9 -9 -19
-5 -23 4 -4 8 -22 8 -40 1 -32 -6 -37 -35 -26 -3 1 -9 2 -13 1 -5 -1 -6 3 -3
8 8 12 -20 34 -33 27 -5 -4 -12 -2 -15 3 -4 5 -2 12 3 15 10 7 9 25 -2 43 -4
6 -3 14 3 18 6 4 8 11 4 16 -3 6 9 25 28 42 19 18 37 39 40 47 3 8 9 11 14 7
5 -4 2 -12 -6 -17 -10 -6 -11 -10 -3 -10 7 0 17 9 23 20 12 22 18 24 39 11z
m5 -42 c-6 -11 -24 -2 -24 11 0 5 7 7 15 4 8 -4 12 -10 9 -15z m-94 -47 c0 -5
-7 -9 -15 -9 -8 0 -12 4 -9 9 3 4 9 8 15 8 5 0 9 -4 9 -8z m2134 -48 c3 -8 2
-12 -4 -9 -6 3 -10 10 -10 16 0 14 7 11 14 -7z m-2084 -309 c5 3 12 0 16 -6 4
-8 3 -9 -4 -5 -7 4 -12 2 -12 -3 0 -6 5 -11 12 -11 6 0 8 -3 4 -7 -4 -5 -14 0
-21 10 -8 12 -15 14 -20 7 -3 -5 -11 -8 -16 -5 -5 4 -9 1 -9 -4 0 -6 -5 -11
-11 -11 -8 0 -8 5 1 15 15 17 7 19 -21 5 -10 -6 -19 -8 -19 -6 0 3 9 10 21 16
15 9 24 8 35 0 11 -10 15 -9 21 6 4 11 8 13 11 6 2 -7 8 -10 12 -7z m-12 -47
c-6 -16 -38 -23 -38 -9 0 6 7 7 17 4 11 -4 14 -3 9 5 -4 7 -2 12 4 12 7 0 10
-6 8 -12z m56 -4 c3 -8 2 -12 -4 -9 -6 3 -10 10 -10 16 0 14 7 11 14 -7z m-24
-9 c7 -9 8 -15 2 -15 -5 0 -12 7 -16 15 -3 8 -4 15 -2 15 2 0 9 -7 16 -15z
m-17 -18 c3 -8 2 -20 -3 -26 -5 -9 -7 -4 -7 13 0 29 2 32 10 13z m-28 -16 c-3
-6 -13 -11 -20 -11 -9 0 -12 -6 -9 -17 5 -15 4 -16 -5 -3 -10 14 -12 13 -15
-9 0 -5 -5 -13 -10 -18 -5 -5 -6 -3 -2 5 4 7 2 12 -5 12 -6 0 0 9 14 20 14 11
30 20 36 20 6 0 11 5 11 12 0 6 3 9 6 5 3 -3 3 -10 -1 -16z m42 -36 c-4 -8
-12 -15 -19 -14 -10 0 -10 2 0 6 6 2 12 12 12 21 0 8 3 13 6 9 4 -3 4 -13 1
-22z m28 16 c3 -5 2 -12 -3 -15 -5 -3 -9 1 -9 9 0 17 3 19 12 6z m-65 -11 c0
-5 -4 -10 -10 -10 -5 0 -10 5 -10 10 0 6 5 10 10 10 6 0 10 -4 10 -10z m29
-33 c-2 -1 -13 -9 -24 -17 -19 -14 -19 -14 -6 3 7 9 18 17 24 17 6 0 8 -1 6
-3z m-69 -21 c0 -2 -8 -10 -17 -17 -16 -13 -17 -12 -4 4 13 16 21 21 21 13z
m80 -41 c0 -1 -10 -10 -22 -21 -14 -12 -18 -13 -10 -3 6 9 10 18 7 21 -3 2 2
5 10 5 8 0 15 -1 15 -2z m-37 -53 c4 8 6 7 6 -4 1 -24 -12 -22 -35 5 l-19 22
21 -18 c17 -14 23 -15 27 -5z m1722 -792 c3 -5 1 -10 -4 -10 -6 0 -11 5 -11
10 0 6 2 10 4 10 3 0 8 -4 11 -10z m103 -66 c1 -1 -4 -7 -12 -13 -11 -9 -16
-9 -22 0 -4 8 -3 9 4 5 16 -10 15 6 0 24 -11 12 -10 12 7 0 11 -8 21 -15 23
-16z m-84 8 c2 -4 -5 -9 -17 -9 -17 -2 -19 0 -7 7 18 12 18 12 24 2z m-1939
-12 c-3 -5 1 -10 9 -10 9 0 16 -5 16 -10 0 -7 -7 -7 -20 0 -17 9 -20 30 -4 30
3 0 2 -4 -1 -10z m44 -36 c-11 -14 -10 -15 7 -12 10 1 25 10 32 18 11 13 12
12 3 -6 -10 -21 -53 -29 -50 -9 3 20 12 36 17 31 3 -3 -1 -13 -9 -22z m1983 9
c-6 -2 -9 -10 -6 -15 4 -7 2 -8 -5 -4 -13 9 -5 26 12 25 9 0 8 -2 -1 -6z
m-2045 -19 c-3 -3 -12 -4 -19 -1 -8 3 -5 6 6 6 11 1 17 -2 13 -5z m2019 -6 c5
-7 3 -8 -6 -3 -10 6 -12 4 -6 -10 5 -15 4 -16 -9 -5 -13 11 -13 15 -3 21 17
11 16 11 24 -3z m-2003 -23 c-3 -10 -1 -15 7 -13 7 2 15 -4 17 -12 4 -12 3
-12 -5 -2 -5 8 -13 13 -18 12 -5 0 -10 6 -12 14 -2 9 1 16 7 16 6 0 8 -7 4
-15z m42 -3 c-3 -3 -11 0 -18 7 -9 10 -8 11 6 5 10 -3 15 -9 12 -12z m45 -3
c-7 -11 -14 -18 -18 -15 -3 4 -11 -3 -18 -15 -6 -13 -19 -24 -28 -25 -9 -1
-14 2 -10 7 3 5 9 7 13 4 5 -2 13 7 20 21 6 14 15 23 20 20 5 -3 11 1 15 9 3
8 8 15 11 15 3 0 1 -9 -5 -21z m1938 1 c-7 -10 -14 -17 -17 -15 -4 4 18 35 25
35 2 0 -1 -9 -8 -20z m-2024 -39 c-5 -6 -34 20 -34 30 0 5 8 1 18 -8 10 -10
17 -20 16 -22z m1909 22 c-4 -10 -2 -14 4 -10 7 4 10 0 9 -10 -2 -9 -8 -18
-15 -19 -7 -2 -7 0 -1 3 8 3 7 9 0 19 -7 7 -9 18 -5 24 10 16 15 12 8 -7z m96
-21 c-5 -2 -6 -9 -2 -15 3 -7 2 -9 -2 -4 -5 4 -10 17 -12 28 -2 16 -1 18 11 7
8 -7 10 -15 5 -16z m-47 -14 c-8 -8 -9 -4 -5 13 4 13 8 18 11 10 2 -7 -1 -18
-6 -23z m-1870 8 c7 4 8 2 4 -5 -9 -13 -26 -5 -25 12 0 9 2 8 6 -1 2 -6 10 -9
15 -6z m1930 -38 c-7 -7 -12 -8 -12 -2 0 14 12 26 19 19 2 -3 -1 -11 -7 -17z
m-52 -62 c0 -3 -4 -8 -10 -11 -5 -3 -10 -1 -10 4 0 6 5 11 10 11 6 0 10 -2 10
-4z m-50 -24 c0 -5 -7 -9 -15 -9 -8 0 -12 4 -9 9 3 4 9 8 15 8 5 0 9 -4 9 -8z
m-4 -68 c-3 -9 -6 -18 -6 -20 0 -2 -5 -4 -11 -4 -8 0 -9 4 0 13 6 8 8 17 4 20
-3 4 -1 7 6 7 8 0 11 -6 7 -16z m121 -145 c-13 -21 -12 -21 -44 -24 -13 -1
-23 3 -23 8 0 7 -4 7 -12 -1 -17 -17 -33 -15 -18 3 12 15 35 16 58 1 10 -6 13
-3 11 10 -5 29 10 47 26 34 11 -9 12 -16 2 -31z m-13 -59 c11 -11 15 -20 9
-20 -6 0 -16 7 -23 15 -7 8 -17 12 -23 8 -5 -3 -7 -2 -4 4 3 5 -3 9 -13 8 -25
-2 -35 -11 -15 -13 8 -1 22 -3 30 -4 16 -1 19 -10 8 -21 -3 -4 -12 -2 -19 4
-7 6 -18 8 -24 4 -8 -5 -3 -16 14 -34 15 -15 23 -30 20 -34 -10 -9 -46 12 -39
24 4 5 3 15 -1 21 -12 20 -12 52 0 60 17 12 58 1 80 -22z m-1871 -127 c-3 -7
-6 -13 -8 -13 -2 0 -5 6 -8 13 -3 8 1 14 8 14 7 0 11 -6 8 -14z m41 9 c-6 -4
-10 -14 -9 -23 2 -12 -5 -16 -23 -16 l-25 0 24 13 c13 7 20 13 16 14 -13 0 3
20 16 20 9 0 9 -2 1 -8z m71 -23 c-4 -5 -12 -9 -18 -8 -9 0 -8 2 1 6 6 2 9 10
6 15 -4 7 -2 8 5 4 6 -4 9 -12 6 -17z m119 9 c-5 -7 -2 -9 7 -6 10 4 15 -1 15
-12 0 -11 -5 -16 -15 -12 -8 3 -12 1 -8 -5 3 -5 0 -10 -8 -10 -11 0 -12 4 -4
13 5 6 9 16 8 20 -2 14 0 24 7 24 3 0 2 -5 -2 -12z m-332 -21 c5 -9 6 -17 2
-17 -3 0 -1 -6 5 -14 9 -10 9 -16 1 -21 -8 -5 -7 -13 3 -29 14 -21 14 -21 -48
-21 -62 0 -62 0 -48 21 10 15 11 24 3 29 -12 7 -4 25 12 25 6 0 7 -8 3 -17 -5
-14 -4 -15 6 -6 7 7 13 25 15 40 3 34 1 32 20 29 9 -1 20 -10 26 -19z m170 9
c7 4 8 2 4 -4 -11 -18 -26 -14 -25 6 0 10 3 12 6 4 2 -6 10 -9 15 -6z m28 -27
c0 -5 5 -7 12 -3 6 4 8 3 4 -4 -3 -5 -3 -12 1 -15 5 -2 3 -3 -3 -1 -7 1 -22
-5 -35 -13 -12 -9 -19 -12 -16 -6 4 6 0 13 -8 17 -8 3 -15 11 -14 18 0 10 2
10 6 1 2 -7 9 -13 14 -13 6 0 7 6 3 13 -6 10 -4 10 7 0 18 -18 34 -16 19 2 -9
10 -9 15 -1 15 6 0 11 -5 11 -11z m100 -14 c0 -7 -30 -13 -34 -7 -3 4 4 9 15
9 10 1 19 0 19 -2z m76 -31 c3 -16 2 -26 -1 -23 -3 4 -8 19 -11 35 -3 16 -2
26 1 23 3 -4 8 -19 11 -35z m-228 -5 c10 -16 11 -24 2 -33 -9 -8 -11 -6 -8 8
1 10 -3 21 -10 23 -6 3 -10 -1 -9 -9 2 -7 2 -10 0 -5 -3 4 -9 4 -15 1 -5 -3
-4 3 4 15 16 26 20 26 36 0z m185 4 c-6 -16 -10 -16 -16 0 -3 8 1 14 8 14 7 0
11 -6 8 -14z m-116 -8 c0 -8 -4 -12 -9 -9 -4 3 -8 9 -8 15 0 5 4 9 8 9 5 0 9
-7 9 -15z m-127 -15 c12 -12 15 -20 7 -20 -7 0 -18 9 -25 20 -7 11 -10 20 -7
20 3 0 14 -9 25 -20z m95 10 c-3 -5 -1 -10 4 -10 6 0 11 -5 11 -11 0 -8 -5 -8
-15 1 -13 11 -12 30 1 30 3 0 2 -4 -1 -10z m75 6 c0 -2 -7 -7 -16 -10 -8 -3
-12 -2 -9 4 6 10 25 14 25 6z m154 -12 c3 -8 2 -12 -4 -9 -6 3 -10 10 -10 16
0 14 7 11 14 -7z m101 -14 c3 -5 1 -10 -4 -10 -6 0 -11 5 -11 10 0 6 2 10 4
10 3 0 8 -4 11 -10z"/>
<path d="M393 2255 c-14 -10 -24 -12 -28 -5 -4 6 -11 8 -16 4 -6 -3 -6 -11 -1
-17 10 -15 10 -27 -2 -46 -7 -10 -6 -12 3 -6 8 4 24 -4 42 -21 16 -15 29 -26
30 -23 9 39 3 62 -18 77 l-25 16 24 18 c28 21 21 24 -9 3z m23 -82 l1 -25 -24
25 c-13 13 -25 30 -26 38 -2 8 -7 21 -12 29 -5 8 6 2 25 -14 21 -17 35 -38 36
-53z"/>
<path d="M380 2203 c13 -28 27 -37 27 -18 0 8 -3 13 -5 10 -3 -3 -11 3 -19 13
-13 15 -13 15 -3 -5z"/>
<path d="M2236 351 c-4 -5 -2 -12 3 -15 5 -4 12 -2 15 3 4 5 2 12 -3 15 -5 4
-12 2 -15 -3z"/>
<path d="M244 116 c-8 -8 -7 -15 5 -24 9 -8 10 -10 3 -7 -13 7 -30 -9 -51 -45
-8 -13 -2 -16 34 -16 38 0 42 3 34 18 -6 10 -5 19 1 23 6 4 7 12 3 18 -4 7 -8
18 -9 25 -3 20 -7 21 -20 8z m17 -49 c-5 -5 -7 -17 -4 -26 4 -14 3 -14 -6 -1
-9 13 -11 13 -11 0 0 -13 -1 -13 -10 0 -8 12 -10 12 -10 1 0 -8 -3 -11 -7 -8
-9 10 24 44 42 44 10 0 12 -4 6 -10z"/>
<path d="M2350 2596 c0 -2 8 -10 18 -17 15 -13 16 -12 3 4 -13 16 -21 21 -21
13z"/>
<path d="M2333 2565 c0 -8 3 -13 5 -10 3 3 12 -1 21 -7 10 -8 9 -4 -3 10 -23
26 -23 26 -23 7z"/>
<path d="M2388 2539 c6 -9 10 -18 7 -20 -2 -3 5 -5 15 -6 11 -1 20 3 20 9 0 6
-3 8 -7 5 -3 -4 -16 1 -27 10 -15 14 -18 14 -8 2z"/>
<path d="M2295 2529 c-4 -6 -5 -12 -2 -15 2 -3 7 2 10 11 7 17 1 20 -8 4z"/>
<path d="M2334 2526 c1 -8 5 -18 8 -22 4 -3 5 1 4 10 -1 8 -5 18 -8 22 -4 3
-5 -1 -4 -10z"/>
<path d="M2303 2484 c9 -11 15 -23 12 -26 -3 -2 2 -5 10 -5 10 0 12 4 5 12 -5
7 -6 16 -2 21 4 5 3 6 -2 2 -5 -4 -16 -2 -25 4 -12 10 -12 7 2 -8z"/>
<path d="M2383 2482 c10 -10 14 -22 10 -27 -5 -4 -2 -5 5 -1 11 6 10 12 -4 27
-9 10 -19 19 -22 19 -3 0 2 -8 11 -18z"/>
<path d="M2349 2477 c6 -8 9 -16 6 -19 -3 -2 2 -5 10 -5 13 0 13 3 -2 19 -19
21 -31 25 -14 5z"/>
<path d="M413 2465 c0 -8 4 -12 9 -9 5 3 6 10 3 15 -9 13 -12 11 -12 -6z"/>
<path d="M2276 2462 c-3 -5 1 -9 9 -9 8 0 12 4 9 9 -3 4 -7 8 -9 8 -2 0 -6 -4
-9 -8z"/>
<path d="M2455 2420 c3 -5 8 -10 11 -10 2 0 4 5 4 10 0 6 -5 10 -11 10 -5 0
-7 -4 -4 -10z"/>
<path d="M2485 2420 c-3 -5 -2 -10 4 -10 5 0 13 5 16 10 3 6 2 10 -4 10 -5 0
-13 -4 -16 -10z"/>
<path d="M2530 2419 c0 -5 5 -7 10 -4 6 3 10 8 10 11 0 2 -4 4 -10 4 -5 0 -10
-5 -10 -11z"/>
<path d="M2559 2423 c0 -5 -3 -19 -5 -32 -2 -14 -2 -22 1 -19 8 8 17 58 10 58
-3 0 -5 -3 -6 -7z"/>
<path d="M2510 2400 c0 -6 7 -10 15 -10 8 0 15 2 15 4 0 2 -7 6 -15 10 -8 3
-15 1 -15 -4z"/>
<path d="M2475 2390 c6 -10 4 -12 -9 -7 -10 4 -15 3 -11 -4 4 -5 14 -7 24 -4
12 3 17 -1 17 -15 0 -11 -6 -20 -13 -20 -7 0 -13 -5 -13 -10 0 -7 6 -7 18 -1
23 12 22 50 -3 63 -14 8 -16 8 -10 -2z"/>
<path d="M2577 2383 c-10 -10 -8 -41 2 -48 5 -3 13 0 17 6 4 8 3 9 -4 5 -8 -5
-12 1 -12 14 0 13 4 19 12 14 7 -4 8 -3 4 4 -8 14 -10 14 -19 5z"/>
<path d="M2447 2359 c7 -7 15 -10 18 -7 3 3 -2 9 -12 12 -14 6 -15 5 -6 -5z"/>
<path d="M2520 2360 c0 -5 5 -10 10 -10 6 0 10 5 10 10 0 6 -4 10 -10 10 -5 0
-10 -4 -10 -10z"/>
<path d="M2510 2320 c0 -6 7 -10 15 -10 8 0 15 2 15 4 0 2 -7 6 -15 10 -8 3
-15 1 -15 -4z"/>
<path d="M2550 2300 c0 -5 5 -10 10 -10 6 0 10 5 10 10 0 6 -4 10 -10 10 -5 0
-10 -4 -10 -10z"/>
<path d="M459 2243 c-5 -33 -3 -141 2 -137 4 2 6 12 4 22 -1 9 2 22 7 29 5 7
5 13 0 17 -6 3 -8 22 -6 41 1 19 1 35 -2 35 -2 0 -5 -3 -5 -7z"/>
<path d="M370 2125 c0 -6 5 -16 12 -23 9 -9 9 -12 0 -12 -7 0 -11 -3 -11 -7 3
-18 -2 -36 -7 -30 -15 14 -41 -13 -37 -37 3 -14 8 -25 12 -24 17 5 51 -15 51
-30 0 -13 2 -13 14 3 14 19 15 19 35 1 12 -11 22 -15 22 -10 4 32 3 40 -5 52
-6 8 -3 19 8 31 16 17 15 18 -9 16 -22 -3 -30 5 -26 28 0 4 -3 7 -8 7 -14 0
-41 -41 -35 -52 6 -10 24 -11 23 0 -1 4 -1 14 0 22 1 13 2 13 11 0 5 -9 5 -19
-2 -27 -7 -9 -7 -13 0 -13 6 0 16 8 21 18 6 9 11 12 11 5 0 -6 -5 -15 -11 -19
-8 -4 -7 -9 2 -16 10 -6 7 -7 -10 -3 -15 5 -21 3 -17 -3 12 -20 -17 -25 -31
-6 -8 10 -16 18 -19 16 -12 -9 -24 5 -18 22 6 16 8 16 16 2 5 -9 14 -16 20
-16 7 0 6 5 -2 15 -10 12 -6 20 19 45 22 23 26 30 12 25 -13 -4 -23 0 -30 12
-6 10 -11 13 -11 8z m85 -135 c-3 -5 -12 -10 -18 -10 -7 0 -6 4 3 10 19 12 23
12 15 0z"/>
<path d="M390 2005 c0 -8 4 -15 8 -15 5 0 9 7 9 15 0 8 -4 15 -9 15 -4 0 -8
-7 -8 -15z"/>
<path d="M330 1971 c-7 -14 -6 -20 5 -25 8 -3 19 3 25 13 7 14 6 20 -5 25 -8
3 -19 -3 -25 -13z"/>
<path d="M2504 1762 c4 -3 14 -7 22 -8 9 -1 13 0 10 4 -4 3 -14 7 -22 8 -9 1
-13 0 -10 -4z"/>
<path d="M2526 1721 c-14 -15 -15 -21 -4 -27 7 -4 10 -3 5 1 -4 5 0 17 10 27
9 10 14 18 11 18 -3 0 -13 -9 -22 -19z"/>
<path d="M2554 1706 c1 -8 5 -18 8 -22 4 -3 5 1 4 10 -1 8 -5 18 -8 22 -4 3
-5 -1 -4 -10z"/>
<path d="M2476 1702 c-3 -5 1 -9 9 -9 8 0 12 4 9 9 -3 4 -7 8 -9 8 -2 0 -6 -4
-9 -8z"/>
<path d="M2570 1656 c0 -2 8 -10 18 -17 15 -13 16 -12 3 4 -13 16 -21 21 -21
13z"/>
<path d="M33 635 c0 -8 4 -15 9 -15 4 0 8 7 8 15 0 8 -4 15 -8 15 -5 0 -9 -7
-9 -15z"/>
<path d="M120 634 c-25 -15 -25 -15 -1 -8 18 5 22 3 16 -7 -5 -8 -4 -10 0 -6
7 6 17 38 12 37 -1 -1 -13 -7 -27 -16z"/>
<path d="M39 593 c-13 -16 -12 -17 4 -4 9 7 17 15 17 17 0 8 -8 3 -21 -13z"/>
<path d="M90 600 c0 -5 5 -10 10 -10 6 0 10 5 10 10 0 6 -4 10 -10 10 -5 0
-10 -4 -10 -10z"/>
<path d="M2200 585 c6 -8 20 -17 31 -20 10 -4 19 -11 19 -16 0 -6 -7 -6 -19 1
-16 8 -23 6 -35 -12 -8 -12 -13 -25 -11 -29 3 -4 -2 -10 -11 -13 -8 -3 -13
-10 -10 -15 4 -5 1 -11 -6 -13 -8 -3 -6 -7 5 -11 9 -3 16 -3 14 1 -3 11 36 82
46 82 4 0 1 -11 -8 -24 -14 -21 -14 -24 1 -37 15 -12 16 -11 10 8 -5 17 -2 24
16 33 21 10 21 10 6 -3 -18 -15 -25 -33 -9 -23 5 3 12 -1 15 -10 3 -8 2 -13
-2 -10 -5 3 -9 -1 -9 -8 0 -8 7 -12 14 -9 10 4 12 14 8 30 -4 18 -2 23 6 17 8
-5 9 -3 4 6 -4 7 -8 24 -9 38 -1 16 -7 26 -20 28 -10 1 -23 7 -29 13 -16 16
-31 13 -17 -4z"/>
<path d="M68 583 c6 -2 9 -10 6 -15 -4 -7 -2 -8 5 -4 13 9 5 26 -12 25 -9 0
-8 -2 1 -6z"/>
<path d="M135 580 c5 -9 1 -10 -16 -6 -21 6 -22 6 -6 -5 13 -7 22 -8 29 -1 6
6 6 12 -3 17 -8 6 -10 4 -4 -5z"/>
<path d="M24 558 c10 -6 22 -6 26 -2 5 5 -3 10 -18 11 -22 1 -24 0 -8 -9z"/>
<path d="M56 542 c-2 -4 -1 -14 3 -21 6 -9 11 -10 15 -2 4 6 2 11 -4 11 -6 0
-8 5 -5 10 3 6 4 10 1 10 -3 0 -7 -4 -10 -8z"/>
<path d="M17 520 c-3 -11 -1 -23 4 -26 5 -3 6 -10 3 -16 -4 -7 -9 -7 -13 0 -4
6 -7 -25 -7 -68 1 -58 4 -80 13 -80 7 0 13 -6 13 -12 0 -9 4 -8 11 2 9 12 10
11 6 -8 -3 -12 -1 -20 4 -16 5 3 9 11 9 18 0 7 7 13 15 13 21 0 19 -6 -12 -35
-17 -16 -21 -23 -11 -19 13 4 23 -1 34 -18 9 -14 20 -25 26 -25 5 0 -2 12 -16
27 -21 22 -22 28 -10 40 8 8 14 18 14 23 0 10 19 8 38 -3 7 -5 12 -4 12 2 0 6
-5 11 -10 11 -6 0 -3 11 5 24 10 14 12 27 6 30 -5 3 -8 17 -7 31 2 13 -1 22
-5 19 -5 -3 -9 0 -9 5 0 6 5 11 12 11 6 0 8 3 5 7 -4 3 -1 13 6 21 10 13 9 14
-3 7 -21 -13 -51 -14 -47 -1 2 6 11 11 20 11 9 0 17 3 17 8 0 4 0 11 0 16 0 5
-8 12 -17 15 -14 6 -14 4 3 -15 14 -16 15 -20 4 -19 -29 4 -40 0 -41 -17 0
-11 -3 -13 -6 -5 -2 7 -14 17 -26 23 -21 10 -21 10 -3 -5 26 -21 16 -30 -11
-11 -14 10 -19 22 -16 35 3 11 3 20 0 20 -2 0 -7 -9 -10 -20z m16 -57 c-5 -12
-3 -14 8 -8 8 5 31 10 53 11 25 1 34 -1 25 -7 -8 -5 -10 -9 -5 -9 5 0 3 -7 -4
-15 -11 -13 -10 -14 2 -10 9 4 18 -1 22 -10 3 -9 2 -14 -3 -11 -5 3 -12 -1
-15 -10 -4 -12 -2 -15 9 -11 21 9 26 -7 10 -29 -10 -15 -24 -20 -59 -19 -24 0
-48 4 -53 9 -10 9 -12 67 -2 61 4 -3 13 3 20 12 12 15 12 16 -3 10 -10 -3 -20
-1 -24 5 -4 7 -3 8 4 4 7 -4 12 -2 12 3 0 6 -5 11 -11 11 -8 0 -8 5 1 15 16
20 21 19 13 -2z"/>
<path d="M44 449 c-2 -4 1 -11 7 -14 7 -5 4 -14 -8 -29 -11 -11 -19 -30 -19
-41 1 -16 8 -20 49 -20 38 -1 51 3 59 18 7 14 7 17 -1 13 -19 -12 -32 3 -21
24 8 16 8 18 -5 14 -18 -7 -20 7 -3 24 13 13 14 13 -25 16 -15 2 -30 -1 -33
-5z m44 -16 c-7 -9 -7 -17 2 -28 7 -8 9 -15 5 -15 -5 0 -1 -8 8 -18 15 -17 14
-18 -28 -18 -25 0 -45 4 -45 9 0 5 8 7 18 3 15 -5 15 -4 1 6 -15 10 -15 13 4
29 17 13 19 20 10 31 -10 11 -8 14 12 14 19 0 22 -3 13 -13z"/>
<path d="M61 396 c-13 -15 -2 -28 27 -32 11 -2 11 0 0 13 -7 9 -11 18 -10 20
10 13 -7 11 -17 -1z m16 -11 c0 -8 -4 -12 -9 -9 -5 3 -6 10 -3 15 9 13 12 11
12 -6z"/>
<path d="M2188 478 c-3 -7 -4 -23 -3 -35 1 -14 -3 -19 -12 -16 -7 3 -10 9 -7
14 3 5 1 9 -4 9 -13 0 -25 -28 -27 -61 -1 -14 -5 -31 -8 -36 -4 -6 0 -16 7
-22 10 -8 16 -9 21 -1 3 5 3 10 -1 10 -3 0 -1 6 5 14 9 11 8 15 -5 20 -13 5
-14 10 -6 18 6 6 8 18 5 27 -3 13 -2 12 7 -2 6 -9 15 -15 21 -12 5 4 9 1 9 -5
0 -6 4 -9 9 -6 5 3 12 -1 15 -10 5 -13 9 -14 21 -4 8 6 19 9 24 6 5 -4 12 -2
15 3 4 5 2 12 -4 16 -7 4 -7 12 0 25 9 16 7 18 -16 14 -22 -4 -25 -2 -20 13 4
9 4 14 0 10 -4 -4 -15 0 -24 8 -14 12 -19 13 -22 3z m24 -33 c-2 -9 1 -14 7
-11 5 4 12 2 16 -4 4 -6 12 -7 18 -4 7 4 9 4 5 -1 -4 -4 -2 -15 4 -24 9 -11 6
-10 -9 2 -13 11 -23 14 -27 8 -4 -6 -14 -7 -22 -4 -13 5 -13 7 -2 14 11 7 11
9 -1 9 -10 0 -11 3 -2 14 8 10 9 16 1 19 -6 3 -5 4 2 3 7 -2 12 -11 10 -21z
m-65 -94 c0 -11 -5 -18 -9 -15 -4 3 -5 11 -1 19 7 21 12 19 10 -4z"/>
<path d="M106 294 c-8 -21 -8 -24 5 -24 5 0 7 5 4 10 -3 6 -1 10 4 10 6 0 11
-4 11 -10 0 -5 5 -10 10 -10 6 0 5 8 -2 20 -15 24 -24 25 -32 4z"/>
<path d="M15 290 c3 -5 8 -10 11 -10 2 0 4 5 4 10 0 6 -5 10 -11 10 -5 0 -7
-4 -4 -10z"/>
<path d="M20 260 c0 -5 5 -10 11 -10 5 0 7 5 4 10 -3 6 -8 10 -11 10 -2 0 -4
-4 -4 -10z"/>
<path d="M70 238 c28 -30 25 -47 -3 -20 -13 12 -27 22 -31 22 -7 0 1 -9 40
-43 20 -17 21 -17 20 0 -2 24 -24 63 -37 63 -5 0 -1 -10 11 -22z"/>
<path d="M0 243 c0 -6 7 -18 15 -27 19 -18 19 -30 1 -23 -15 6 -16 -17 -1 -30
4 -4 5 -3 2 3 -4 7 0 15 9 18 21 8 26 8 20 -2 -2 -4 4 -8 15 -8 16 0 14 4 -11
24 -16 13 -34 31 -40 40 -5 9 -10 12 -10 5z"/>
<path d="M113 198 c-2 -18 0 -20 7 -8 12 18 13 30 2 30 -4 0 -9 -10 -9 -22z"/>
<path d="M2135 180 c3 -5 11 -10 16 -10 6 0 7 5 4 10 -3 6 -11 10 -16 10 -6 0
-7 -4 -4 -10z"/>
<path d="M216 153 c-4 -5 -12 -9 -17 -9 -5 -1 -13 -2 -18 -3 -5 0 -11 -13 -14
-27 -4 -25 -4 -25 29 7 19 18 34 34 34 36 0 5 -6 3 -14 -4z"/>
<path d="M276 138 c3 -5 10 -6 15 -3 13 9 11 12 -6 12 -8 0 -12 -4 -9 -9z"/>
<path d="M305 70 c-3 -6 1 -7 9 -4 18 7 21 14 7 14 -6 0 -13 -4 -16 -10z"/>
</g>
</svg>
